{"title":"Silent Hill Revelation 3D 2012 TS Xvid UnKnOwN","uid":7779712,"size":740130281,"categoryP":"video","categoryS":"movies","magnet":"?xt=urn:btih:7ad297b1d5c0e8074ebb875560910eadda52527a&amp;dn=Silent+Hill+Revelation+3D+2012+TS+Xvid+UnKnOwN&amp;tr=udp%3A%2F%2Ftracker.openbittorrent.com%3A80&amp;tr=udp%3A%2F%2Fopen.demonii.com%3A1337&amp;tr=udp%3A%2F%2Ftracker.coppersurfer.tk%3A6969&amp;tr=udp%3A%2F%2Fexodus.desync.com%3A6969","seeders":1,"leechers":0,"uploader":"Acesn8s","files":-1,"time":1351749812,"description":"Silent Hill Revelation 3D 2012 TS Xvid UnKnOwN\n\nEncoded By .......:UnKnOwN\nRuntime ..........:1:26\nIMDb URL ........:http://www.imdb.com/title/tt0938330/\nLanguage .........:English\nFile Size ........:698mb\nRelease Date ......... 2012\nSource ......... Russian/Your sister\nFile Type ......... Single AVI\nPS3 Compatible ....... Fuck your PS3\nGenre ......... Thriller/Horror\n\nVideo\nID: 0\nFormat: MPEG-4 Visual\nFormat profile: Advanced Simple@L5\nFormat settings, BVOP: Yes\nFormat settings, QPel: No\nFormat settings, GMC: No warppoints\nFormat settings, Matrix: Custom\nCodec ID: XVID\nCodec ID/Hint: XviD\nDuration: 1h 26mn\nBit rate: 1081kbps\nWidth: 640pixels\nHeight: 272pixels\nDisplay aspect ratio: 2:35\nFrame rate: 25.000fps\nColor space: YUV\nChroma subsampling: 4:2:0\nBit depth: 8 bits\nScan type: Progressive\nBits/(Pixel*Frame): 0.234\nStream size: 892 MiB (86%)\nWriting library: XviD 1.2.1 (UTC 2008-12-04)\n\nAudio\nID: 1\nFormat: AC3\nFormat/Info: MPEG\nMode extension: CM (complete main)\nCodec ID: 2000\nDuration: 1h 26mn\nBit rate mode: Constant\nBit rate: 192kbps\nChannel(s): 2channels\nChannel positions: Front: L R\nSampling rate: 48.0 KHz\nBit depth: 16 bits\nStream size: 302 MiB\nAlignment: Aligned on interleaves\nInterleave, duration: 42 ms (1.00 video frame)\nInterleave, preload duration: 512 ms\n\nSYNOPSIS\nWhen her father disappears, Heather Mason is drawn into a strange and\nterrifying alternate reality that holds answers to the horrific nightmares\nthat have plagued her since childhood\n\nRELEASE INFO\nReached deep in your sister goodie bag and got some nice line\nYes it's a 3d cam,yes it's a dark movie,yes you can complain\nno we don't give a fuck(:\n\nSmall file size,One for the cam lovers 2 samples included normal and dark\nHappy Halloween bitches enjoy or go see it at the cinemas\n\nLOOKING FOR\n\nInternet love tell your girl to hook it up with a cam show\n\nGREETZ &amp; RESPECT\n\nNOBODY YET WILL LET YOU KNOW\n\nMORE GOODIES COMING REAL SOON\n &lt;a href=&quot;\nhttp://www.shotpix.com/images/31655123325494955454.png&quot; rel=&quot;nofollow&quot; target=&quot;_NEW&quot;&gt;\nhttp://www.shotpix.com/images/31655123325494955454.png&lt;/a&gt; &lt;a href=&quot;\nhttp://www.shotpix.com/images/86132342150335552851.png&quot; rel=&quot;nofollow&quot; target=&quot;_NEW&quot;&gt;\nhttp://www.shotpix.com/images/86132342150335552851.png&lt;/a&gt; &lt;a href=&quot;\nhttp://www.shotpix.com/images/81882560932211051787.png&quot; rel=&quot;nofollow&quot; target=&quot;_NEW&quot;&gt;\nhttp://www.shotpix.com/images/81882560932211051787.png&lt;/a&gt; &lt;a href=&quot;\nhttp://www.shotpix.com/images/61628962027512405871.png&quot; rel=&quot;nofollow&quot; target=&quot;_NEW&quot;&gt;\nhttp://www.shotpix.com/images/61628962027512405871.png&lt;/a&gt;\n","torrent":{"xt":"urn:btih:7ad297b1d5c0e8074ebb875560910eadda52527a","amp;dn":"Silent+Hill+Revelation+3D+2012+TS+Xvid+UnKnOwN","amp;tr":["udp%3A%2F%2Ftracker.openbittorrent.com%3A80","udp%3A%2F%2Fopen.demonii.com%3A1337","udp%3A%2F%2Ftracker.coppersurfer.tk%3A6969","udp%3A%2F%2Fexodus.desync.com%3A6969"],"infoHash":"7ad297b1d5c0e8074ebb875560910eadda52527a","infoHashBuffer":{"type":"Buffer","data":[122,210,151,177,213,192,232,7,78,187,135,85,96,145,14,173,218,82,82,122]},"announce":[],"urlList":[]}}